<svg width="294" height="181" viewBox="0 0 294 181" fill="none" xmlns="http://www.w3.org/2000/svg">
<g clip-path="url(#clip0_27_15)">
<path opacity="0.1" d="M294 116.148C294.005 121.047 293.412 125.929 292.235 130.685C291.839 132.288 291.379 133.857 290.854 135.393C290.213 137.289 289.47 139.149 288.628 140.964C288.204 141.883 287.755 142.783 287.282 143.665C287.29 148.689 286.256 153.661 284.245 158.265C280.609 166.526 274.126 173.205 265.978 177.086C260.883 179.517 255.315 180.795 249.671 180.83H55.8107C47.1855 180.849 38.7092 178.583 31.2437 174.263L31.1289 174.198C30.0655 173.576 29.0288 172.917 28.0187 172.221C25.746 170.651 23.6108 168.891 21.6361 166.959C18.9633 164.347 16.6081 161.429 14.6194 158.265C9.94863 150.849 7.47429 142.261 7.48297 133.496C2.75279 125.196 -0.0054395 115.254 -0.0054395 104.571C-0.0054395 91.0915 4.37778 78.7956 11.5791 69.4875C13.0805 67.5428 14.725 65.713 16.499 64.0134C18.2494 62.3316 20.1308 60.7916 22.1253 59.4081C23.7211 58.2999 25.3889 57.2993 27.1176 56.4127C27.839 56.0458 28.5628 55.6988 29.2992 55.3768C29.9457 55.0898 30.5997 54.8227 31.2612 54.5706C32.0549 54.2694 32.8587 53.9923 33.6724 53.7393C34.4862 53.4864 35.2891 53.2651 36.0812 53.0754C37.2461 52.7908 38.4309 52.5595 39.6357 52.3814C40.6342 52.2342 41.6326 52.1318 42.6311 52.0544C43.4248 51.9945 44.2261 51.9621 45.0324 51.9521H45.4692C46.3578 51.9521 47.2414 51.9871 48.1176 52.047C48.2099 51.8622 48.3098 51.675 48.4021 51.4928C48.7516 50.8263 49.1135 50.1624 49.478 49.5134C49.4772 49.5076 49.4772 49.5017 49.478 49.4959C49.5404 49.3811 49.6028 49.2688 49.6677 49.1589C49.9622 48.6273 50.2693 48.1006 50.5838 47.5789C50.7285 47.3293 50.8708 47.0946 51.0181 46.86C51.0492 46.8017 51.0834 46.745 51.1204 46.6903C51.2702 46.4406 51.4225 46.191 51.5772 45.9414C52.3477 44.71 53.149 43.5002 53.981 42.312L54.1932 42.0075C54.323 41.8228 54.4428 41.6431 54.5876 41.4583C54.932 40.9766 55.2865 40.4923 55.6434 40.0181C55.893 39.6786 56.1427 39.3416 56.4122 39.0196C57.0612 38.1876 57.7269 37.3555 58.4092 36.5235C59.0914 35.6914 59.8003 34.8702 60.5359 34.0598C60.6357 33.9475 60.7356 33.8376 60.8404 33.7278L61.9062 32.5646C61.9587 32.5097 62.0036 32.4598 62.0535 32.4099C62.1808 32.2726 62.3031 32.1353 62.4404 32.003C63.012 31.3964 63.5986 30.8023 64.1877 30.2108C67.1857 27.2247 70.3795 24.442 73.7479 21.8811C73.8802 21.7763 74.015 21.6765 74.1473 21.5766C74.7813 21.0999 75.4253 20.6281 76.0693 20.1638C79.6116 17.6226 83.3144 15.313 87.1547 13.2495C87.4192 13.0972 87.6888 12.955 87.9609 12.8152C91.4037 10.9938 94.9445 9.36381 98.567 7.93273C100.541 7.15144 102.561 6.41758 104.593 5.74612C105.946 5.3018 107.303 4.87996 108.679 4.48307C110.829 3.86403 112.994 3.30906 115.174 2.81815C121.596 1.37709 128.13 0.486898 134.704 0.157266C136.7 0.0557564 138.72 0.00333822 140.762 1.00416e-05C150.614 -0.0130333 160.428 1.22837 169.966 3.69429C170.065 3.84333 170.2 3.96484 170.359 4.04737C170.517 4.1299 170.694 4.17074 170.873 4.16606H171.711C172.076 4.26591 172.438 4.36575 172.802 4.47059C174.837 5.05635 176.843 5.69619 178.82 6.39012L179.32 6.56984C184.199 8.30489 188.946 10.3904 193.525 12.8102C197.652 14.9862 201.626 17.4415 205.419 20.1588C206.003 20.5782 206.579 21.0008 207.146 21.4269C207.835 20.9859 208.536 20.5632 209.248 20.1588C211.999 18.5923 214.92 17.3469 217.955 16.4471C224.299 14.5695 231.013 14.307 237.484 15.6832C245.784 17.443 253.298 21.8113 259.366 28.0241C261.836 30.5662 264.036 33.3586 265.928 36.3562C266.065 36.5709 266.203 36.7881 266.335 37.0077C267.961 39.6609 269.359 42.4474 270.513 45.3373C270.556 45.4447 270.598 45.5445 270.636 45.6494C271.701 48.3555 272.561 51.1383 273.207 53.974C273.237 54.1188 273.272 54.261 273.302 54.4058C273.906 57.1501 274.316 59.9335 274.53 62.7354C274.53 62.8353 274.53 62.9376 274.55 63.0424C274.654 64.4919 274.708 65.9563 274.709 67.4357C274.709 68.7586 274.664 70.0716 274.582 71.3746C274.582 71.5168 274.562 71.6641 274.55 71.8114C274.527 72.1883 274.495 72.5602 274.462 72.9396C276.369 74.4774 278.153 76.1607 279.799 77.9743C280.526 78.7681 281.23 79.5918 281.911 80.4455C283.984 83.0438 285.806 85.8328 287.352 88.7751C291.573 96.7428 294 106.116 294 116.148Z" fill="#EB330B"/>
<path opacity="0.1" d="M265.794 176.162C265.794 177.867 259.92 179.465 249.671 180.838H55.8111C47.1859 180.856 38.7097 178.59 31.2442 174.27L31.1293 174.205C34.0748 173.132 39.3915 172.131 46.6278 171.227L46.9523 171.188C50.1973 170.791 53.8242 170.414 57.7881 170.057C57.8879 170.057 57.9903 170.042 58.0901 170.029C61.2352 169.75 64.5809 169.488 68.1271 169.243C68.2394 169.243 68.3492 169.223 68.4616 169.218C69.8294 169.12 71.2256 169.027 72.6501 168.939L73.1992 168.904C83.5707 168.26 95.3599 167.745 108.145 167.406H108.16C109.951 167.356 111.76 167.312 113.589 167.274C115.623 167.225 117.681 167.183 119.765 167.146C121.355 167.111 122.965 167.086 124.58 167.061H124.617C131.903 166.952 139.432 166.897 147.13 166.897C166.165 166.897 184.158 167.244 200.1 167.868H200.145C202.596 167.963 205.003 168.067 207.349 168.175L209.346 168.27C211.994 168.396 214.573 168.532 217.084 168.676C246.613 170.356 265.794 173.085 265.794 176.162Z" fill="#EB330B"/>
<g opacity="0.2">
<path d="M169.807 165.751C169.799 166.02 169.768 166.288 169.715 166.552C167.978 166.276 166.23 166.026 164.473 165.803C164.473 165.733 164.473 165.661 164.473 165.589C164.489 164.84 164.705 164.11 165.097 163.472C165.611 162.658 166.392 162.149 167.254 162.176C168.115 162.204 168.861 162.761 169.323 163.602C169.672 164.263 169.839 165.004 169.807 165.751Z" fill="#3F3D56"/>
<path d="M169.951 161.486C170.012 159.555 168.866 157.952 167.392 157.906C165.917 157.859 164.673 159.386 164.612 161.317C164.551 163.247 165.696 164.85 167.171 164.897C168.645 164.943 169.89 163.416 169.951 161.486Z" fill="#3F3D56"/>
<path d="M170.087 157.212C170.148 155.282 169.002 153.679 167.528 153.632C166.053 153.586 164.809 155.113 164.748 157.043C164.687 158.974 165.832 160.576 167.307 160.623C168.781 160.67 170.026 159.142 170.087 157.212Z" fill="#3F3D56"/>
<path d="M170.22 152.939C170.281 151.008 169.136 149.405 167.661 149.359C166.187 149.312 164.942 150.839 164.881 152.77C164.82 154.7 165.966 156.303 167.441 156.35C168.915 156.396 170.159 154.869 170.22 152.939Z" fill="#3F3D56"/>
<path d="M170.354 148.665C170.415 146.735 169.269 145.132 167.795 145.085C166.321 145.039 165.076 146.566 165.015 148.496C164.954 150.427 166.1 152.029 167.574 152.076C169.048 152.123 170.293 150.595 170.354 148.665Z" fill="#3F3D56"/>
<path d="M158.6 119.013C158.248 118.537 157.931 118.037 157.651 117.516L164.705 116.585L157.112 116.402C156.434 114.795 156.092 113.066 156.105 111.322C156.118 109.578 156.487 107.855 157.189 106.258L167.204 111.862L158.03 104.663C158.956 103.166 160.18 101.876 161.626 100.874C163.072 99.8717 164.71 99.1782 166.436 98.8371C168.162 98.4959 169.941 98.5144 171.659 98.8913C173.378 99.2683 175.001 99.9955 176.426 101.028C177.851 102.06 179.048 103.375 179.942 104.891C180.837 106.406 181.409 108.09 181.623 109.837C181.837 111.583 181.689 113.355 181.187 115.042C180.686 116.729 179.842 118.294 178.708 119.64C179.255 120.38 179.72 121.178 180.094 122.019L170.836 126.462L180.653 123.509C181.271 125.549 181.371 127.711 180.943 129.799C180.515 131.887 179.573 133.836 178.202 135.468C179.627 137.402 180.479 139.698 180.661 142.093C180.843 144.489 180.347 146.887 179.23 149.014C178.113 151.141 176.42 152.91 174.345 154.12C172.27 155.33 169.896 155.932 167.494 155.856C165.093 155.78 162.762 155.03 160.767 153.692C158.772 152.354 157.194 150.481 156.213 148.288C155.232 146.095 154.888 143.67 155.221 141.291C155.553 138.912 156.548 136.674 158.093 134.834C156.39 132.523 155.513 129.706 155.604 126.837C155.694 123.968 156.747 121.212 158.592 119.013H158.6Z" fill="#EB330B"/>
<path opacity="0.1" d="M181.197 127.645C181.11 130.516 180.054 133.273 178.202 135.468C179.627 137.402 180.479 139.698 180.661 142.093C180.843 144.489 180.347 146.887 179.23 149.014C178.113 151.141 176.42 152.91 174.345 154.12C172.27 155.33 169.896 155.932 167.494 155.856C165.093 155.78 162.762 155.03 160.767 153.692C158.772 152.354 157.194 150.481 156.213 148.288C155.232 146.095 154.888 143.67 155.221 141.291C155.553 138.912 156.548 136.674 158.093 134.834C156.453 132.605 181.242 126.21 181.197 127.645Z" fill="black"/>
</g>
<g opacity="0.2">
<path d="M131.866 165.751C131.858 166.02 131.827 166.288 131.774 166.552C130.036 166.276 128.289 166.026 126.532 165.803C126.532 165.733 126.532 165.661 126.532 165.589C126.548 164.84 126.763 164.11 127.156 163.472C127.67 162.658 128.451 162.149 129.312 162.176C130.174 162.204 130.92 162.761 131.382 163.602C131.731 164.263 131.898 165.004 131.866 165.751Z" fill="#3F3D56"/>
<path d="M132.007 161.487C132.068 159.556 130.922 157.953 129.448 157.907C127.973 157.86 126.729 159.387 126.668 161.318C126.607 163.248 127.752 164.851 129.227 164.898C130.701 164.944 131.946 163.417 132.007 161.487Z" fill="#3F3D56"/>
<path d="M132.143 157.213C132.204 155.283 131.058 153.68 129.584 153.633C128.109 153.587 126.865 155.114 126.804 157.044C126.743 158.975 127.888 160.577 129.363 160.624C130.837 160.671 132.082 159.143 132.143 157.213Z" fill="#3F3D56"/>
<path d="M132.276 152.94C132.337 151.009 131.192 149.406 129.717 149.36C128.243 149.313 126.998 150.84 126.937 152.771C126.876 154.701 128.022 156.304 129.496 156.351C130.971 156.397 132.215 154.87 132.276 152.94Z" fill="#3F3D56"/>
<path d="M132.41 148.666C132.471 146.736 131.325 145.133 129.851 145.086C128.377 145.04 127.132 146.567 127.071 148.497C127.01 150.428 128.156 152.03 129.63 152.077C131.105 152.124 132.349 150.596 132.41 148.666Z" fill="#3F3D56"/>
<path d="M120.658 119.013C120.307 118.537 119.99 118.037 119.71 117.516L126.764 116.585L119.171 116.402C118.493 114.795 118.15 113.066 118.164 111.322C118.177 109.578 118.546 107.855 119.248 106.258L129.262 111.862L120.089 104.663C121.015 103.166 122.239 101.876 123.685 100.874C125.131 99.8717 126.769 99.1782 128.495 98.8371C130.221 98.4959 131.999 98.5144 133.718 98.8913C135.437 99.2683 137.06 99.9955 138.485 101.028C139.91 102.06 141.107 103.375 142.001 104.891C142.895 106.406 143.467 108.09 143.681 109.837C143.896 111.583 143.747 113.355 143.246 115.042C142.745 116.729 141.901 118.294 140.767 119.64C141.314 120.38 141.778 121.178 142.152 122.019L132.894 126.462L142.712 123.509C143.33 125.549 143.43 127.711 143.001 129.799C142.573 131.887 141.631 133.836 140.26 135.468C141.686 137.402 142.538 139.698 142.72 142.093C142.902 144.489 142.406 146.887 141.289 149.014C140.172 151.141 138.479 152.91 136.404 154.12C134.328 155.33 131.954 155.932 129.553 155.856C127.152 155.78 124.821 155.03 122.826 153.692C120.831 152.354 119.252 150.481 118.272 148.288C117.291 146.095 116.947 143.67 117.28 141.291C117.612 138.912 118.607 136.674 120.152 134.834C118.449 132.523 117.572 129.706 117.663 126.837C117.753 123.968 118.806 121.212 120.651 119.013H120.658Z" fill="#EB330B"/>
<path opacity="0.1" d="M143.256 127.645C143.168 130.516 142.113 133.273 140.26 135.468C141.686 137.402 142.538 139.698 142.72 142.093C142.902 144.489 142.406 146.887 141.289 149.014C140.172 151.141 138.479 152.91 136.404 154.12C134.328 155.33 131.954 155.932 129.553 155.856C127.152 155.78 124.821 155.03 122.826 153.692C120.831 152.354 119.252 150.481 118.272 148.288C117.291 146.095 116.947 143.67 117.28 141.291C117.612 138.912 118.607 136.674 120.152 134.834C118.512 132.605 143.301 126.21 143.256 127.645Z" fill="black"/>
</g>
<g opacity="0.2">
<path d="M235.506 168.482C235.486 168.992 235.426 169.499 235.323 169.999C231.978 169.465 228.61 168.988 225.216 168.567C225.216 168.432 225.216 168.295 225.216 168.155C225.248 166.713 225.663 165.306 226.42 164.079C227.418 162.513 228.916 161.533 230.571 161.582C232.226 161.632 233.666 162.708 234.564 164.328C235.242 165.604 235.567 167.038 235.506 168.482Z" fill="#3F3D56"/>
<path d="M235.777 160.264C235.895 156.546 233.688 153.46 230.848 153.37C228.008 153.28 225.611 156.221 225.493 159.939C225.376 163.656 227.583 166.743 230.422 166.832C233.262 166.922 235.66 163.981 235.777 160.264Z" fill="#3F3D56"/>
<path d="M236.037 152.036C236.154 148.319 233.947 145.232 231.107 145.142C228.267 145.053 225.87 147.994 225.753 151.711C225.635 155.429 227.842 158.515 230.682 158.605C233.522 158.695 235.919 155.754 236.037 152.036Z" fill="#3F3D56"/>
<path d="M236.298 143.809C236.416 140.091 234.209 137.005 231.369 136.915C228.529 136.825 226.132 139.766 226.015 143.484C225.897 147.201 228.104 150.288 230.944 150.378C233.784 150.467 236.181 147.526 236.298 143.809Z" fill="#3F3D56"/>
<path d="M236.265 135.207C236.377 131.488 234.164 128.403 231.323 128.318C228.482 128.233 226.088 131.179 225.976 134.898C225.865 138.618 228.077 141.702 230.919 141.787C233.76 141.873 236.154 138.927 236.265 135.207Z" fill="#3F3D56"/>
<path d="M213.926 78.506C213.253 77.5897 212.643 76.628 212.102 75.628L225.681 73.8357L211.066 73.4838C209.76 70.3898 209.1 67.062 209.125 63.704C209.15 60.3459 209.859 57.0283 211.211 53.954L230.493 64.7398L212.836 50.8813C214.621 48.0067 216.979 45.5307 219.764 43.6075C222.548 41.6843 225.698 40.3552 229.019 39.703C232.339 39.0507 235.758 39.0893 239.063 39.8164C242.368 40.5435 245.488 41.9435 248.228 43.9291C250.968 45.9147 253.27 48.4434 254.99 51.3576C256.71 54.2717 257.811 57.5089 258.225 60.8673C258.639 64.2258 258.357 67.6335 257.396 70.8782C256.436 74.1229 254.817 77.1349 252.642 79.7266C253.693 81.153 254.588 82.6887 255.31 84.307L237.485 92.8663L256.383 87.1751C257.574 91.0976 257.768 95.2552 256.947 99.2716C256.127 103.288 254.317 107.036 251.683 110.177C254.426 113.9 256.067 118.32 256.417 122.931C256.766 127.542 255.812 132.159 253.661 136.253C251.511 140.348 248.252 143.754 244.256 146.083C240.261 148.412 235.691 149.57 231.069 149.425C226.447 149.279 221.958 147.835 218.118 145.259C214.277 142.683 211.239 139.078 209.351 134.856C207.463 130.635 206.801 125.967 207.44 121.387C208.08 116.807 209.995 112.499 212.968 108.956C209.692 104.507 208.005 99.0866 208.179 93.5641C208.352 88.0416 210.377 82.7376 213.926 78.5035V78.506Z" fill="#EB330B"/>
<path opacity="0.1" d="M257.434 95.1203C257.27 100.644 255.248 105.951 251.693 110.182C254.436 113.905 256.077 118.325 256.427 122.936C256.776 127.547 255.821 132.164 253.671 136.258C251.521 140.353 248.262 143.759 244.266 146.088C240.271 148.417 235.701 149.575 231.079 149.43C226.457 149.284 221.969 147.84 218.128 145.264C214.287 142.688 211.249 139.083 209.361 134.861C207.473 130.64 206.811 125.972 207.45 121.392C208.09 116.812 210.005 112.504 212.978 108.961C209.798 104.666 257.521 92.3571 257.434 95.1203Z" fill="black"/>
</g>
<path d="M39.394 168.921L42.0125 168.914H45.7043L50.372 93.0859L96.598 15.9478L94.5886 13.7912V8.32961L44.596 91.2987L39.394 168.921Z" fill="#F1C0C0"/>
<path opacity="0.1" d="M42.292 168.914H45.7043L50.372 93.0859L96.598 15.9478L94.5886 13.7911L46.9074 91.9302L42.292 168.914Z" fill="black"/>
<path d="M31.6785 169.553L151.456 178.718L151.558 178.726L267.476 171.597L267.563 171.592V166.697L139.836 164.353L33.2735 164.251H32.4947L32.4098 164.8L31.6785 169.553Z" fill="#F1C0C0"/>
<path opacity="0.1" d="M31.6785 169.553L151.456 178.718L151.558 178.726L267.476 171.597L267.563 171.502V166.799H267.461L151.456 170.673L33.2735 164.251H33.256L33.0464 164.388L32.4098 164.8L31.6785 169.553Z" fill="black"/>
<path opacity="0.1" d="M31.6785 169.553L151.456 178.718V170.673L33.0464 164.388L32.4098 164.8L31.6785 169.553Z" fill="black"/>
<path d="M94.5736 13.6888L147.379 70.3661L145.747 170.062L150.232 170.603L150.307 170.613H154.793L155.33 74.647L254.209 107.676L255.876 166.485L259.486 166.889L260.709 167.027L257.878 103.597L154.513 67.3083L97.8361 8.38703H94.5736V13.6888Z" fill="#F1C0C0"/>
<path opacity="0.1" d="M154.923 72.8123L155.33 74.647L254.209 107.676L255.876 166.485L259.486 166.889L256.655 106.453L154.923 72.8123Z" fill="black"/>
<path opacity="0.1" d="M94.5736 13.6888L147.379 70.3661L145.747 170.062L150.232 170.603L151.456 67.1037L94.5736 8.38703V13.6888Z" fill="black"/>
<path d="M155.115 112.823L191.381 119.964L191.394 119.967L254.913 132.48L257.821 131.314L257.811 131.11L257.621 127.053L155.152 106.348L155.115 112.823Z" fill="#F1C0C0"/>
<path opacity="0.1" d="M191.394 119.967L254.913 132.48L257.821 131.314L257.811 131.11L191.394 119.967Z" fill="black"/>
<path d="M193.823 87.5046L194.804 141.506L195.31 169.211L199.776 169.061L202.586 168.966L201.713 88.2859L199.776 87.6419L199.351 87.5046H193.823Z" fill="#F1C0C0"/>
<path opacity="0.1" d="M193.862 87.4921V87.5046L194.804 141.506L195.31 169.211L199.776 169.061V87.4921H193.862Z" fill="black"/>
<path d="M123.873 101.296C124.135 101.438 124.386 101.601 124.622 101.782C124.902 102.027 125.153 102.303 125.371 102.604C126.442 103.989 127.43 105.599 127.325 107.346C127.328 107.601 127.28 107.853 127.184 108.088C127.089 108.324 126.947 108.538 126.769 108.719C126.327 109.096 125.693 109.114 125.114 109.114C124.485 109.114 123.823 109.114 123.279 108.789C122.735 108.465 122.281 107.833 121.637 107.848C121.546 107.863 121.453 107.863 121.362 107.848C121.14 107.776 121.095 107.484 120.95 107.299C120.701 106.967 120.174 107.049 119.782 107.194C119.39 107.339 118.956 107.556 118.569 107.389C118.344 107.27 118.161 107.087 118.042 106.862C117.116 105.364 116.919 103.565 116.744 101.825C116.637 100.767 115.818 97.1571 118.077 97.9784C119.076 98.3378 120.009 99.0567 120.918 99.5834L123.873 101.296Z" fill="#3F3D56"/>
<path d="M121.642 101.653C121.843 101.798 122.088 101.871 122.336 101.861C122.585 101.851 122.823 101.759 123.012 101.598C123.384 101.262 123.621 100.802 123.679 100.305C123.928 100.227 124.055 100.554 124.215 100.754C124.495 101.094 125.064 101.089 125.319 101.45C125.496 101.7 125.456 102.047 125.581 102.329C125.743 102.694 126.145 102.883 126.419 103.178C126.679 103.5 126.866 103.873 126.968 104.274L127.378 105.502C127.574 106.012 127.7 106.547 127.752 107.092C127.778 107.364 127.749 107.639 127.668 107.9C127.587 108.161 127.454 108.403 127.278 108.612C126.729 109.203 125.828 109.266 125.031 109.248C124.766 109.254 124.5 109.223 124.243 109.156C123.536 108.936 123.084 108.225 122.897 107.509C122.71 106.792 122.73 106.041 122.62 105.307C122.502 104.586 122.292 103.883 121.996 103.215C121.777 102.696 121.172 101.922 121.182 101.371C121.362 101.371 121.492 101.535 121.642 101.653Z" fill="#3F3D56"/>
<path d="M122.538 99.1241C122.421 98.7697 122.353 98.401 122.336 98.0283C122.336 97.2795 122.678 96.5755 123.022 95.9066L120.169 96.2935C119.825 96.3409 119.44 96.4108 119.245 96.6978C119.172 96.8401 119.133 96.9981 119.133 97.1584C119.133 97.3187 119.172 97.4767 119.245 97.6189C119.388 97.9037 119.502 98.2023 119.585 98.51C119.591 98.7794 119.622 99.0476 119.677 99.3113C119.766 99.505 119.891 99.6803 120.044 99.828C120.86 100.732 121.472 101.797 122.081 102.853C122.064 102.823 123.801 101.478 123.731 101.039C123.691 100.789 123.189 100.489 123.03 100.25C122.809 99.902 122.643 99.5223 122.538 99.1241Z" fill="#BE6F72"/>
<path d="M147 89.3717V91.8304L104.898 100.043L102.714 101.366H95.1777V99.9803L136.544 89.9857L147 89.3717Z" fill="#F1C0C0"/>
<path opacity="0.1" d="M147 91.8304L104.898 100.043L102.714 101.366H95.1777L136.851 92.4469L147 91.8304Z" fill="black"/>
<path d="M113.197 159.169C112.728 158.601 112.081 158.208 111.36 158.055C110.639 157.902 109.888 157.997 109.228 158.325C109.087 158.391 108.963 158.489 108.864 158.61C108.614 158.959 108.774 159.441 108.797 159.873C108.854 160.926 108.015 161.782 107.262 162.518C106.857 162.913 106.445 163.335 106.263 163.871C106.081 164.408 106.216 165.089 106.705 165.369C106.918 165.476 107.151 165.541 107.389 165.559C108.187 165.714 109.005 165.737 109.81 165.626C110.606 165.474 111.388 165.022 111.732 164.288C111.799 164.089 111.909 163.908 112.054 163.757C112.493 163.41 113.167 163.816 113.667 163.569C114.078 163.365 114.096 163.043 114.101 162.618C114.116 161.445 113.941 160.117 113.197 159.169Z" fill="#EB330B"/>
<path d="M119.188 159.124C119.495 159.932 119.537 160.814 119.577 161.677C119.6 162.177 119.615 162.711 119.345 163.133C119.076 163.554 118.549 163.777 118.045 163.881C117.004 164.096 115.798 163.894 115.127 163.068C114.613 162.436 114.505 161.57 114.6 160.751C114.68 160.08 114.85 159.293 114.368 158.817C114.243 158.689 114.081 158.6 113.966 158.462C113.717 158.158 113.756 157.698 113.891 157.324C114.067 156.966 114.198 156.588 114.283 156.198C114.303 156.014 117.663 156.328 117.972 156.48C118.394 156.688 118.329 157.034 118.457 157.454C118.634 158.038 118.973 158.565 119.188 159.124Z" fill="#EB330B"/>
<path d="M119.805 123.264C120.464 123.691 120.718 124.53 120.821 125.309C121.103 127.443 120.608 129.599 120.571 131.754C120.536 134.771 121.41 137.844 120.663 140.767C120.216 142.514 120.596 144.511 120.177 146.276C120.052 146.8 119.822 147.295 119.702 147.819C119.453 148.954 119.715 150.143 120.067 151.253C120.179 151.553 120.25 151.866 120.279 152.184C120.262 152.675 120.138 153.155 119.914 153.592L118.417 157.134C118.25 157.531 117.591 157.596 117.169 157.649C116.375 157.743 115.489 157.811 114.857 157.319C114.226 156.827 114.073 156.004 113.976 155.235C113.789 153.759 113.706 152.272 113.727 150.784C113.754 150.396 113.719 150.006 113.624 149.628C113.487 149.202 113.185 148.832 113.102 148.38C112.998 147.796 113.295 147.222 113.405 146.633C113.48 146.095 113.471 145.549 113.38 145.013C113.282 144.214 113.17 143.416 113.043 142.622C112.863 141.511 113.12 140.415 113.292 139.302C113.454 138.256 113.247 137.19 113.043 136.152C113.06 136.995 112.955 137.835 112.731 138.648C112.598 139.045 112.409 139.424 112.294 139.829C111.782 141.643 112.873 143.548 112.718 145.427C112.646 146.306 112.301 147.175 112.399 148.041C112.466 148.675 112.761 149.256 112.963 149.861C113.165 150.465 113.27 151.156 112.963 151.72C112.151 153.253 112.758 155.337 113.484 156.91C113.632 157.189 113.76 157.477 113.869 157.773C114.083 158.482 113.904 159.244 113.961 159.982C113.752 160.017 113.538 160.003 113.335 159.942C113.132 159.881 112.946 159.774 112.79 159.63C112.681 159.516 112.591 159.381 112.483 159.261C112.184 158.975 111.829 158.754 111.44 158.61C111.212 158.482 110.952 158.422 110.691 158.437C110.417 158.514 110.17 158.667 109.98 158.879C109.733 159.096 109.471 159.296 109.196 159.476C109.079 159.566 108.942 159.626 108.797 159.653C108.724 159.664 108.649 159.652 108.583 159.619C108.517 159.585 108.463 159.531 108.43 159.466C108.414 159.424 108.405 159.38 108.402 159.336C108.31 158.582 108.26 157.824 108.255 157.064C108.255 155.759 106.692 154.86 106.495 153.57C106.338 152.529 106.63 151.468 106.533 150.42C106.485 149.881 106.335 149.351 106.345 148.812C106.345 148.463 106.425 148.121 106.453 147.774C106.476 147.389 106.47 147.002 106.435 146.618L106.358 145.412C106.283 144.222 106.201 143.006 105.731 141.918C105.175 140.647 104.845 139.289 104.758 137.904C104.708 137.03 104.74 136.157 104.641 135.281C104.551 134.489 104.351 133.703 104.408 132.909C104.456 132.295 104.658 131.701 104.705 131.087C104.803 129.906 104.354 128.758 104.002 127.627C103.65 126.497 103.39 125.244 103.852 124.153C103.918 123.974 104.028 123.814 104.171 123.689C104.348 123.571 104.55 123.496 104.76 123.469C109.043 122.569 113.433 122.289 117.795 122.638C118.506 122.678 119.197 122.893 119.805 123.264Z" fill="#3F3D56"/>
<path d="M105.634 96.7528C107.842 96.7528 109.633 94.9624 109.633 92.7539C109.633 90.5455 107.842 88.7551 105.634 88.7551C103.426 88.7551 101.635 90.5455 101.635 92.7539C101.635 94.9624 103.426 96.7528 105.634 96.7528Z" fill="#BE6F72"/>
<path d="M104.86 97.7487C104.918 97.9773 104.918 98.2166 104.86 98.4451C104.797 98.6049 104.709 98.7533 104.598 98.8845C104.211 99.3838 103.783 99.8497 103.318 100.277C103.555 100.807 103.981 101.228 104.513 101.458C105.042 101.683 105.596 101.841 106.163 101.93C106.446 102.004 106.741 102.025 107.032 101.99C107.3 101.922 107.553 101.807 107.781 101.65L110.002 100.32C110.337 100.138 110.648 99.9142 110.926 99.6533C111.333 99.2345 111.564 98.675 111.57 98.0907C111.58 97.986 111.552 97.8812 111.49 97.7961C111.405 97.722 111.298 97.6774 111.185 97.6688C110.404 97.4966 109.788 96.8626 109.438 96.1437C109.122 95.4068 108.918 94.6269 108.832 93.8298L106.463 95.0779C106.111 95.2651 105.761 95.4523 105.397 95.6145C105.165 95.7194 104.695 95.8067 104.531 96.0189C104.216 96.4108 104.778 97.2769 104.86 97.7487Z" fill="#BE6F72"/>
<path d="M103.333 99.5509C102.995 99.8274 102.732 100.183 102.566 100.587C102.412 101.086 102.566 101.613 102.706 102.107C103.361 104.214 103.862 106.365 104.204 108.544C104.413 110.042 104.491 111.562 104.593 113.077C104.803 116.168 105.107 121.095 105.514 124.165C107.012 124.233 108.472 123.796 109.957 123.636C112.733 123.342 115.591 124.016 118.309 123.387C117.65 120.783 116.991 116.337 116.332 113.736C116.041 112.712 115.839 111.664 115.728 110.604C115.671 109.842 115.706 109.079 115.716 108.312C115.738 106.815 115.656 105.317 115.574 103.819C115.479 102.072 115.384 100.325 114.97 98.6149C114.941 98.397 114.839 98.1954 114.68 98.0433C114.43 97.861 114.106 97.9259 113.809 97.9659C112.899 98.0814 111.979 97.8632 111.218 97.3518C110.888 97.1272 110.447 96.8526 110.14 97.1022C110.009 97.2528 109.922 97.4369 109.89 97.6339C109.754 97.987 109.544 98.3071 109.275 98.5727C109.005 98.8383 108.682 99.0433 108.327 99.174C107.616 99.4316 106.871 99.5846 106.116 99.6283C105.885 99.6779 105.644 99.6507 105.429 99.5509C105.075 99.3338 105.05 98.5525 104.603 98.5C104.211 98.4551 103.597 99.2988 103.333 99.5509Z" fill="#3F3D56"/>
<path d="M109.238 105.647C108.317 104.765 107.913 103.487 107.242 102.402C106.784 101.671 106.2 101.029 105.517 100.504C105.173 100.278 104.858 100.01 104.578 99.7082C104.341 99.4162 104.161 99.0268 103.802 98.9144C103.653 98.8821 103.499 98.8864 103.353 98.9268C103.206 98.9672 103.072 99.0427 102.961 99.1466C102.741 99.3563 102.532 99.5779 102.337 99.8105C101.278 100.906 99.4186 101.059 98.5799 102.327C98.3537 102.596 98.1999 102.918 98.1331 103.263C97.8917 105.108 98.3689 106.976 99.4661 108.48C99.6785 108.828 100.005 109.093 100.39 109.228C100.337 109.694 100.399 110.165 100.569 110.601C101.032 112.181 101.599 113.728 102.269 115.232C102.109 115.82 101.997 116.42 101.935 117.026C101.76 118.552 101.922 120.099 101.758 121.627C101.623 122.875 101.258 124.09 101.246 125.341C101.246 125.541 101.263 125.778 101.436 125.88C101.527 125.927 101.63 125.949 101.733 125.943L104.803 126.035C106.585 126.087 108.385 126.14 110.14 125.81C110.373 125.776 110.6 125.704 110.811 125.598C111.405 125.266 111.602 124.517 111.697 123.851C111.821 122.986 111.87 122.113 111.844 121.24C112.216 122.416 112.658 123.631 113.781 124.14C114.375 124.41 115.054 124.39 115.706 124.373C117.11 124.31 118.51 124.166 119.897 123.941C119.982 123.951 120.069 123.942 120.15 123.913C120.232 123.884 120.305 123.836 120.364 123.774C120.424 123.712 120.468 123.636 120.493 123.554C120.518 123.471 120.523 123.384 120.508 123.299L120.523 121.936C120.553 119.168 119.867 116.522 119.6 113.766C119.515 112.898 119.523 112.019 119.31 111.168C119.223 110.811 119.096 110.462 119.018 110.102C118.952 109.75 118.91 109.394 118.893 109.036L118.699 106.291C118.606 105.02 118.474 103.794 118.377 102.526C118.323 101.292 118.144 100.066 117.843 98.867C117.625 98.1182 117.174 97.2695 116.392 97.1771C115.976 97.1297 115.571 97.3119 115.174 97.4392C114.199 97.7463 113.152 97.742 112.179 97.4267C111.878 97.308 111.565 97.2243 111.245 97.1771C111.084 97.1552 110.921 97.1765 110.771 97.2388C110.62 97.3011 110.49 97.4021 110.392 97.5316C110.295 97.7266 110.249 97.9431 110.259 98.1606C110.142 100.654 109.925 103.223 109.238 105.647Z" fill="#EB330B"/>
<path d="M105.222 105.721C104.071 104.508 102.891 103.273 101.408 102.501C100.824 102.197 100.16 101.967 99.5135 102.082C98.867 102.197 98.2654 102.758 98.2954 103.415C98.3153 103.822 98.5625 104.181 98.6398 104.581C98.7297 105.03 98.5999 105.509 98.7397 105.944C98.8533 106.23 99.023 106.49 99.2389 106.71L101.006 108.804C101.755 109.678 102.504 110.564 103.467 111.168C104.431 111.772 105.679 112.054 106.737 111.625C107.49 111.275 108.116 110.7 108.53 109.98C108.969 109.281 109.278 108.517 109.69 107.796C110.331 106.643 111.177 105.617 112.186 104.768C111.667 104.633 111.016 104.443 110.689 104.019C110.596 103.884 110.516 103.74 110.452 103.59L110.047 102.716C109.91 102.709 109.772 102.73 109.643 102.779C109.514 102.827 109.397 102.902 109.298 102.998C109.125 103.199 108.939 103.388 108.742 103.565C108.39 103.829 107.913 103.902 107.593 104.204C107.47 104.333 107.358 104.474 107.259 104.623C107.017 104.941 106.711 105.203 106.359 105.392C106.008 105.582 105.62 105.694 105.222 105.721Z" fill="#3F3D56"/>
<path d="M112.279 100.502C113.145 98.9219 113.105 97.0273 113.352 95.2426C113.379 94.77 113.545 94.3158 113.829 93.9371C114.328 93.373 115.209 93.3655 115.963 93.4379C116.185 93.4628 116.462 93.5677 116.45 93.7898C116.432 93.8694 116.393 93.9428 116.337 94.002C115.607 94.945 115.177 96.0862 115.104 97.2769C115.496 97.549 116.103 96.9899 116.48 97.2769C116.729 97.4866 116.615 97.901 116.465 98.2005C116.117 98.8944 115.758 99.5834 115.389 100.267C115.094 100.87 114.709 101.425 114.248 101.912C113.931 102.217 113.559 102.456 113.237 102.756C112.488 103.457 112.037 104.448 111.263 105.132C111.197 105.203 111.109 105.248 111.013 105.26C110.915 105.253 110.822 105.211 110.751 105.142C110.365 104.828 110.044 104.44 109.808 104.002C109.513 103.457 109.558 103.298 110.022 102.913C110.891 102.227 111.737 101.49 112.279 100.502Z" fill="#BE6F72"/>
<path d="M103.774 104.648C103.924 104.74 104.109 104.845 104.274 104.768C104.341 104.727 104.398 104.672 104.441 104.606C104.726 104.225 104.964 103.811 105.15 103.373C105.182 103.311 105.2 103.242 105.202 103.173C105.202 103.013 105.06 102.896 104.928 102.803C104.219 102.352 103.457 101.989 102.659 101.725C102 101.475 101.311 101.258 100.612 101.321C100.349 101.338 100.093 101.409 99.8582 101.528C99.6236 101.647 99.4155 101.813 99.2464 102.015C98.7472 102.656 99.5834 102.851 100.108 103.083C101.321 103.635 102.634 103.954 103.774 104.648Z" fill="#EB330B"/>
<path opacity="0.1" d="M102.988 108.891C102.98 108.948 102.985 109.007 103.003 109.061C103.021 109.116 103.052 109.165 103.093 109.206C103.165 108.852 103.07 108.477 103.145 108.12C103.255 107.584 103.777 107.179 103.822 106.64C102.866 106.453 102.996 108.312 102.988 108.891Z" fill="black"/>
<path opacity="0.2" d="M147 89.3717V91.8304L136.851 92.4469L136.544 89.9857L147 89.3717Z" fill="black"/>
<path d="M102.035 93.348C102.669 92.8313 102.302 91.748 102.731 91.0541C102.981 90.6747 103.402 90.475 103.817 90.3052C104.317 90.0713 104.853 89.9228 105.402 89.8659C105.677 89.8395 105.954 89.8754 106.214 89.9709C106.473 90.0664 106.707 90.219 106.9 90.4176C107.062 90.6023 107.172 90.8269 107.324 91.0191C107.512 91.2434 107.758 91.4124 108.035 91.5082C108.312 91.604 108.61 91.623 108.896 91.5633C109.228 91.4884 109.573 91.2363 109.55 90.8968C109.513 90.6904 109.408 90.5023 109.251 90.3627L108.537 89.5714C107.726 88.6728 106.825 87.7192 105.634 87.4946C104.805 87.3373 103.957 87.5595 103.158 87.8266C102.836 87.9339 102.474 88.0937 102.384 88.4207C102.324 88.6453 102.414 88.8899 102.362 89.1171C102.259 89.5689 101.68 89.7211 101.411 90.1006C101.141 90.48 101.223 90.9293 101.146 91.3486C101.069 91.768 100.844 92.1773 100.816 92.6117C100.799 92.8738 100.931 93.3605 101.226 93.4554C101.52 93.5502 101.852 93.036 102.035 93.348Z" fill="#3F3D56"/>
<path d="M109.308 90.5374C109.098 89.4392 108.644 88.402 107.98 87.5021C107.39 86.6612 106.569 86.0093 105.617 85.625C105.14 85.4389 104.628 85.3631 104.118 85.4033C103.609 85.4435 103.115 85.5987 102.674 85.8571C102.019 86.3246 101.509 86.9675 101.203 87.7117C100.557 89.1046 100.317 90.807 101.069 92.1449C101.368 91.7805 101.882 91.9452 102.337 91.8129C102.906 91.6507 103.387 91.2712 103.929 91.0341C105.564 90.3127 107.561 90.8968 109.308 90.5374Z" fill="#FED253"/>
<path opacity="0.1" d="M101.45 90.46C101.393 90.0107 101.356 89.489 101.675 89.1695C101.691 89.1499 101.711 89.1343 101.734 89.1239C101.757 89.1135 101.782 89.1086 101.807 89.1096C101.83 89.1168 101.85 89.1285 101.868 89.144C101.885 89.1594 101.9 89.1783 101.91 89.1994C102.094 89.4905 102.251 89.798 102.379 90.118C102.193 90.0752 101.998 90.0891 101.82 90.1581C101.642 90.2271 101.489 90.3479 101.381 90.5049" fill="black"/>
<path opacity="0.1" d="M107.284 89.192L107.194 88.3008C107.18 88.2274 107.186 88.1514 107.212 88.0812C107.249 88.0224 107.307 87.9797 107.375 87.9612C107.442 87.9428 107.514 87.9499 107.576 87.9813C107.699 88.0494 107.8 88.1506 107.868 88.2734C108.076 88.5923 108.248 88.933 108.382 89.2893C107.98 89.2119 107.567 89.217 107.167 89.3043" fill="black"/>
<path opacity="0.1" d="M109.518 125.358V127.395L107.798 127.51H98.7521V125.358H109.518Z" fill="black"/>
<path d="M109.518 125.358V127.51H98.7522L70.1514 91.6831V89.9907H76.1472L109.518 125.358Z" fill="#F1C0C0"/>
<path opacity="0.1" d="M109.518 125.358V127.51H98.7522L70.1514 91.6831V89.9907H76.1472L109.518 125.358Z" fill="black"/>
<path opacity="0.1" d="M109.518 125.358V127.51H98.7522L70.1514 91.6831V89.9907L98.9069 125.358H109.518Z" fill="black"/>
<path d="M73.9006 161.268C73.9194 161.369 73.9172 161.473 73.8939 161.574C73.8707 161.674 73.8271 161.768 73.7657 161.851C73.7043 161.934 73.6265 162.003 73.5372 162.054C73.4479 162.105 73.349 162.138 73.2466 162.149C72.5527 162.384 71.8163 162.616 71.3246 163.148C70.8329 163.679 70.7355 164.665 71.3246 165.097C71.6257 165.279 71.9714 165.373 72.3231 165.369C73.4538 165.446 74.632 165.431 75.6579 164.952C76.3918 164.613 77.0832 164.034 77.8894 164.086C78.3063 164.111 78.7506 164.306 79.1225 164.116C79.4945 163.926 79.5993 163.397 79.6018 162.955C79.6113 162.033 79.4722 161.115 79.1899 160.237C79.1525 160.117 77.5649 160.025 77.3752 159.987L75.4507 159.738C75.0863 159.69 74.3 159.416 74.0129 159.72C73.7259 160.025 73.9006 160.906 73.9006 161.268Z" fill="#EB330B"/>
<path d="M85.3854 155.038C85.4668 155.487 85.5991 155.926 85.7798 156.346C86.0468 157.024 86.3888 157.746 87.0428 158.075C87.6369 158.372 88.3657 158.265 88.9698 157.983C89.2219 157.879 89.4429 157.711 89.6113 157.496C89.8062 157.157 89.8932 156.766 89.8609 156.376C89.8609 155.409 89.8035 154.411 89.3617 153.552C88.9823 152.804 88.3208 152.16 88.3108 151.331L86.0369 151.77C85.9151 151.782 85.7992 151.828 85.7024 151.902C85.6303 151.978 85.5803 152.072 85.5576 152.175C85.3148 153.109 85.2563 154.081 85.3854 155.038Z" fill="#EB330B"/>
<path d="M58.2299 131.324C58.135 132.128 58.175 132.989 58.5943 133.683C59.0137 134.377 59.8973 134.836 60.6611 134.559C60.7002 134.549 60.737 134.532 60.7691 134.507C60.8013 134.483 60.8282 134.452 60.8483 134.417C60.8686 134.333 60.8571 134.244 60.8159 134.167C60.4787 133.267 60.5064 132.271 60.8932 131.392C60.9432 131.277 61.0505 131.142 61.1678 131.187C61.2169 131.212 61.2564 131.252 61.2801 131.302C61.401 131.511 61.4615 131.749 61.4549 131.991C61.4196 132.209 61.4129 132.432 61.4349 132.652C61.4823 132.867 61.712 133.069 61.9117 132.977C61.9694 132.941 62.0193 132.894 62.0584 132.839C62.0974 132.784 62.1248 132.721 62.1388 132.655C62.6955 131.045 62.4433 129.285 62.1887 127.6C62.1909 127.561 62.1845 127.523 62.17 127.487C62.1555 127.451 62.1334 127.418 62.105 127.392C62.0767 127.366 62.0429 127.346 62.006 127.334C61.9692 127.322 61.9301 127.318 61.8917 127.323C60.7135 127.206 60.0695 126.924 59.3956 128.019C58.8165 128.943 58.2299 130.213 58.2299 131.324Z" fill="#EB330B"/>
<path d="M72.0036 127.228C71.6541 128.681 71.3021 130.151 71.2797 131.644C71.2858 132.574 71.3559 133.502 71.4894 134.422L71.7514 136.584C71.8413 137.312 71.9287 138.039 72.056 138.76C72.1372 139.132 72.1815 139.511 72.1883 139.891C72.1638 140.266 72.1045 140.638 72.011 141.002C71.8541 141.766 71.7664 142.543 71.749 143.323C71.7215 144.571 71.8763 145.819 71.9736 147.067C72.1679 149.554 72.1387 152.054 71.8862 154.536C71.7854 155.206 71.9309 155.889 72.2956 156.46C72.4436 156.64 72.5655 156.84 72.6575 157.054C72.8448 157.626 72.4079 158.198 72.2956 158.784C72.2238 159.242 72.3364 159.709 72.6088 160.083C72.8812 160.458 73.291 160.709 73.7484 160.781C75.7453 161.018 77.7971 160.911 79.5968 161.825C79.7865 161.27 79.3721 160.641 79.5619 160.077C79.6817 159.728 80.0112 159.501 80.2358 159.206C80.5376 158.757 80.6881 158.224 80.6652 157.683C80.674 156.978 80.5486 156.278 80.2957 155.619C80.0835 155.07 79.779 154.528 79.7965 153.939C79.7965 153.65 79.8988 153.345 79.7815 153.078C79.7011 152.925 79.5917 152.788 79.4595 152.676C78.7135 151.859 78.2551 150.82 78.154 149.718C78.0567 148.625 78.0919 147.523 78.2589 146.438C78.3812 145.405 78.5459 144.314 79.2024 143.508C78.898 141.063 79.0769 138.582 79.7291 136.207C79.794 135.987 79.8963 135.732 80.121 135.68C80.2102 135.671 80.3004 135.683 80.3838 135.716C80.4672 135.749 80.5414 135.802 80.6003 135.87C80.9921 136.237 81.1794 136.768 81.3491 137.278C81.5363 137.829 81.726 138.418 81.5837 138.982C81.5238 139.232 81.404 139.452 81.3341 139.691C81.1823 140.173 81.2088 140.693 81.409 141.157C81.5066 141.326 81.5678 141.514 81.5887 141.708C81.5656 141.875 81.515 142.037 81.439 142.187C81.3464 142.483 81.317 142.794 81.3527 143.102C81.3884 143.409 81.4883 143.706 81.6461 143.972C81.9643 144.502 82.3569 144.984 82.8118 145.402C82.5945 146.361 82.6507 147.36 82.9741 148.288C82.9974 148.33 83.0123 148.376 83.0179 148.423C83.0234 148.471 83.0196 148.519 83.0065 148.565C82.9616 148.66 82.8468 148.695 82.7569 148.762C82.5073 148.967 82.6621 149.354 82.8293 149.621C83.2877 150.354 83.7938 151.056 84.3445 151.723C84.8437 152.319 84.7988 153.47 85.5426 153.685C85.8552 153.752 86.1786 153.752 86.4911 153.685C87.225 153.572 88.0437 153.36 88.4032 152.711C88.5504 152.444 88.6104 152.12 88.84 151.92C89.0696 151.72 89.3667 151.685 89.494 151.446C89.6213 151.206 89.479 150.891 89.5214 150.614C89.5639 150.337 89.806 150.115 89.8834 149.823C90.0681 149.149 89.2818 148.595 89.1745 147.906C89.0197 146.908 90.2778 146.159 90.2254 145.16C90.1155 142.991 90.0456 140.812 89.9333 138.643C89.7923 136.7 89.7723 134.75 89.8734 132.804C89.9608 131.594 90.123 130.326 89.6787 129.2C89.0397 127.612 87.2774 126.721 85.5726 126.552C83.8677 126.382 82.1678 126.786 80.4779 127.051C77.6733 127.483 74.8238 127.543 72.0036 127.228Z" fill="#3F3D56"/>
<path d="M77.0707 103.37C79.2792 103.37 81.0695 101.58 81.0695 99.3712C81.0695 97.1627 79.2792 95.3724 77.0707 95.3724C74.8622 95.3724 73.0719 97.1627 73.0719 99.3712C73.0719 101.58 74.8622 103.37 77.0707 103.37Z" fill="#FBBEBE"/>
<path d="M75.4432 104.116C75.3074 104.433 75.079 104.7 74.788 104.884C74.4971 105.068 74.1573 105.16 73.8132 105.147C73.6685 105.746 74.0154 106.35 74.4123 106.822C75.2365 107.781 76.3015 108.503 77.4976 108.913C78.6937 109.324 79.9775 109.407 81.2168 109.156C81.699 109.07 82.1566 108.879 82.5572 108.597C83.0973 108.146 83.46 107.518 83.5806 106.825C83.6955 106.136 83.7282 105.437 83.678 104.74C83.692 104.603 83.6527 104.465 83.5682 104.356C83.4683 104.279 83.3449 104.238 83.2187 104.241C82.375 104.166 81.4939 104.134 80.7525 103.719C80.0112 103.305 79.4845 102.369 79.8414 101.6C79.784 101.72 78.3263 101.777 78.1341 101.802C77.5325 101.887 76.9309 101.982 76.3319 102.092C76.044 102.108 75.7595 102.162 75.4857 102.252C75.1237 102.439 75.2585 102.347 75.3434 102.686C75.4707 103.205 75.6579 103.577 75.4432 104.116Z" fill="#FBBEBE"/>
<path d="M78.486 106.548C77.9475 106.554 77.4102 106.494 76.886 106.37C76.3568 106.247 75.8903 105.935 75.573 105.494C75.3883 105.215 75.2685 104.863 74.974 104.705C74.4922 104.456 73.9431 104.878 73.5587 105.265C73.2087 105.646 72.803 105.973 72.3555 106.233C71.8213 106.515 71.1973 106.615 70.6931 106.947C70.2992 107.245 69.9611 107.61 69.6946 108.025L66.1576 112.843C64.7373 114.78 63.5017 116.859 62.2362 118.903C61.1404 120.673 60.5663 122.71 59.74 124.62C59.6746 124.736 59.6475 124.871 59.6627 125.004C59.6926 125.134 59.8499 125.239 59.9597 125.164C59.5878 125.533 59.9148 126.162 59.8274 126.681C59.7281 127.045 59.521 127.369 59.2333 127.613C59.7827 127.541 60.3405 127.567 60.8808 127.69C61.4391 127.848 61.9661 128.101 62.4384 128.439C62.7404 128.391 62.7129 127.855 62.9376 127.655C63.0724 127.538 63.2721 127.553 63.4493 127.518C64.1158 127.388 64.3804 126.587 64.8921 126.135C65.3189 125.758 65.923 125.636 66.3748 125.281C67.1086 124.704 67.2659 123.679 67.6503 122.827C67.9773 122.106 68.4915 121.477 68.7786 120.738C68.9658 120.259 69.0556 119.74 69.3227 119.298C69.7495 118.584 70.5533 118.205 71.3196 117.863C71.8039 117.645 72.3181 117.421 72.8398 117.456C72.8123 118.616 72.665 119.76 72.9171 120.893C73.0045 121.292 73.1268 121.682 73.2317 122.079C73.7084 123.866 73.8208 125.728 73.8432 127.57C74.9901 127.308 76.1614 127.167 77.3378 127.151C78.2639 127.123 79.1874 127.243 80.1135 127.226C81.2118 127.206 82.2976 126.993 83.3959 126.919C84.4942 126.844 85.6425 126.919 86.6134 127.418C86.5346 125.836 86.5788 124.25 86.7457 122.675L87.0103 120.194C87.07 119.473 87.181 118.757 87.3423 118.052C87.4871 117.483 87.6968 116.934 87.8565 116.367C88.4182 114.371 88.3158 112.239 88.2085 110.16C88.1536 109.091 87.7417 108.04 87.2575 107.089C87.0822 106.736 86.882 106.396 86.6584 106.071C86.0732 105.265 85.2934 104.62 84.3916 104.196C83.4898 103.773 82.4955 103.585 81.5014 103.65C81.3744 103.654 81.2492 103.681 81.1319 103.729C80.9212 103.864 80.7567 104.06 80.6602 104.291C80.1437 105.219 79.3944 105.997 78.486 106.548Z" fill="#3F3D56"/>
<path d="M73.5537 100.697C73.666 100.447 73.968 100.355 74.1527 100.155C74.5072 99.7756 74.3474 99.169 74.4023 98.6573C74.4922 97.9085 75.1137 97.2819 75.8251 97.0148C76.5506 96.782 77.3226 96.7331 78.0717 96.8726C78.4322 96.8989 78.7806 97.0147 79.0851 97.2095C79.2149 97.3044 79.3347 97.4267 79.457 97.5141C79.68 97.6488 79.9468 97.6911 80.2005 97.6319C80.4542 97.5726 80.6747 97.4166 80.8149 97.1971C79.9313 96.1337 78.9528 95.0104 77.6099 94.6834C77.1492 94.5894 76.6797 94.545 76.2096 94.5512C75.588 94.5387 74.9465 94.5287 74.3724 94.7658C73.5911 95.0878 73.042 95.8292 72.7599 96.6279C72.5132 97.4376 72.3813 98.2778 72.368 99.1241C72.3168 99.6887 72.3168 100.257 72.368 100.821C72.4645 101.593 72.751 102.328 73.2017 102.961C73.2626 103.059 73.3488 103.139 73.4513 103.193C74.5896 103.692 73.4613 100.904 73.5537 100.697Z" fill="#3F3D56"/>
<path d="M80.6851 96.5805C80.5478 95.4049 79.7091 94.4339 78.818 93.6526C78.0998 92.9751 77.2442 92.4601 76.3094 92.1424C75.3684 91.8653 74.285 91.9252 73.4788 92.4869C72.8298 92.9387 72.4179 93.6576 72.1009 94.3814C71.6845 95.2357 71.4782 96.1771 71.4993 97.1272C71.5617 98.0707 72.021 99.0268 72.8398 99.5035C73.1343 99.0692 73.646 98.8445 74.1378 98.6673C76.281 97.8542 78.4666 97.1575 80.6851 96.5805Z" fill="#FED253"/>
<path opacity="0.1" d="M73.1144 96.0913C73.1942 96.0913 73.2467 96.1737 73.2866 96.2411C73.4898 96.5577 73.6644 96.8918 73.8083 97.2395C73.5162 97.3019 73.0145 97.3718 72.8697 97.1147C72.7924 96.9849 72.8847 96.0788 73.1144 96.0913Z" fill="black"/>
<path opacity="0.1" d="M78.8031 95.5271C78.7432 95.5846 78.6733 95.4672 78.6733 95.3824V94.4139C78.6716 94.3869 78.6777 94.3601 78.6907 94.3365C78.7011 94.3246 78.7137 94.315 78.7279 94.3081C78.742 94.3013 78.7574 94.2973 78.7731 94.2965C78.9753 94.2741 79.1425 94.4463 79.2723 94.6111C79.4693 94.8781 79.6406 95.163 79.784 95.4622L78.7282 95.4298" fill="black"/>
<path d="M91.9802 111.565C92.2099 111.347 92.4551 111.146 92.714 110.963C93.4055 110.501 94.2417 110.319 95.018 110.025C95.7943 109.73 96.583 109.253 96.8851 108.48C97.0363 107.996 97.0856 107.486 97.0298 106.982C97.0371 106.771 96.9997 106.561 96.92 106.365C96.825 106.193 96.6897 106.045 96.5256 105.936C95.4723 105.157 94.0594 105.095 92.7515 105.175C89.8678 105.354 87.0413 106.059 84.4119 107.257C84.2728 107.302 84.151 107.389 84.0624 107.506C84.0112 107.614 83.988 107.734 83.995 107.853C83.9485 108.589 84.0443 109.327 84.2771 110.027C84.6216 110.916 85.3305 111.632 85.6275 112.538C85.7623 112.945 85.8072 113.377 85.9245 113.786C86.0208 114.209 86.2708 114.581 86.6259 114.83C87.6119 115.419 88.543 114.628 89.2269 114.014L91.9802 111.565Z" fill="#3F3D56"/>
<path d="M79.0676 115.022L77.8021 112.261C77.6165 111.879 77.4564 111.484 77.3228 111.081C77.1781 110.599 77.1082 110.1 76.9734 109.615C76.5291 108.003 75.4083 106.66 74.8616 105.08C74.8271 104.937 74.7566 104.806 74.657 104.698C74.5772 104.642 74.4859 104.603 74.3898 104.586C74.2936 104.569 74.1948 104.573 74.1003 104.598C73.3365 104.73 72.7399 105.312 72.041 105.642C71.7165 105.791 71.3671 105.891 71.0426 106.063C70.8804 106.14 70.7366 106.251 70.6212 106.388C70.5057 106.526 70.4213 106.687 70.3736 106.86C70.2962 107.242 70.4859 107.608 70.6457 107.98C71.3246 109.513 71.4794 111.225 71.5093 112.903C71.5318 114.031 71.4744 115.242 70.8079 116.148C69.5274 117.895 70.3461 120.461 70.8254 122.575C70.8828 122.825 70.9502 123.094 70.9901 123.359C71.0324 123.69 71.0516 124.024 71.0475 124.358C71.0475 125.478 70.9851 126.634 70.5159 127.65C70.9792 127.896 71.4898 128.041 72.0135 128.074C73.463 128.259 74.9182 128.389 76.3793 128.464C76.8371 128.507 77.2987 128.483 77.7497 128.394C78.2853 128.249 78.7574 127.93 79.0914 127.487C79.4255 127.044 79.6024 126.502 79.5943 125.948C79.6742 126.639 79.8215 127.39 80.3232 127.87C80.8249 128.349 81.5563 128.421 82.2377 128.459C84.161 128.561 86.0893 128.506 88.0038 128.296C88.126 128.291 88.2461 128.263 88.3583 128.214C88.7277 128.029 88.7477 127.52 88.7177 127.111C88.6628 126.344 88.6054 125.578 88.513 124.817C88.4347 124.331 88.3946 123.841 88.3932 123.349C88.4313 122.843 88.5148 122.342 88.6428 121.851C88.9773 120.294 89.2419 118.704 89.1296 117.109C89.0852 116.72 89.0693 116.329 89.0821 115.938C89.147 115.057 89.6113 114.218 89.5239 113.342C89.2743 110.766 89.0721 108.123 88.3533 105.637C88.2235 105.192 88.0587 104.715 87.6718 104.461C87.1726 104.126 86.4712 104.301 85.8996 104.089C85.6313 103.964 85.3763 103.813 85.1382 103.637C84.621 103.314 84.028 103.131 83.4184 103.108C82.9591 103.09 82.4474 103.193 82.1703 103.562C82.042 103.77 81.9571 104.002 81.9207 104.244C81.5588 105.766 81.1344 107.271 80.7101 108.777L80.3032 110.219L79.2124 114.093C79.1051 114.505 79.1775 114.633 79.0676 115.022Z" fill="#EB330B"/>
<path d="M85.4502 99.9079L109.595 125.281V127.433H98.8295L80.6851 103.752" fill="#F1C0C0"/>
<path opacity="0.1" d="M85.4502 99.9079L109.595 125.281V127.433H98.8295L80.6851 103.752" fill="black"/>
<path opacity="0.1" d="M81.0695 103.417L81.1469 103.445L98.9843 125.281H109.595V127.433H98.8295L80.6851 103.752L81.0695 103.417Z" fill="black"/>
<path d="M83.8477 103.952C82.9741 104.334 82.0031 104.823 81.741 105.741C81.6893 105.903 81.6781 106.074 81.7086 106.241C81.7724 106.436 81.8941 106.608 82.0577 106.734C82.2212 106.859 82.4189 106.931 82.6246 106.942C83.0357 106.952 83.4444 106.877 83.8253 106.722L88.9798 105.02C89.1196 104.975 89.2793 104.908 89.3143 104.77C89.3233 104.684 89.3059 104.597 89.2644 104.521C89.1046 104.131 88.9474 103.335 88.6129 103.063C88.3383 102.843 87.7941 102.921 87.4622 102.926C86.1841 102.936 84.9835 103.452 83.8477 103.952Z" fill="#EB330B"/>
<path d="M88.4431 105.222C89.3115 105.22 90.1749 105.354 91.0017 105.619C91.8322 105.889 92.5677 106.391 93.1209 107.067C93.282 107.256 93.3965 107.48 93.4554 107.721C93.5053 107.97 94.319 108.12 94.1393 108.29C94.686 108.203 94.5562 108.46 95.1103 108.455C95.6645 108.45 96.2635 108.307 96.5955 107.866C96.8262 107.503 96.929 107.073 96.8876 106.645C96.8948 106.349 96.8387 106.054 96.7228 105.781C96.4732 105.257 95.8991 104.975 95.3699 104.733L90.9118 102.694C90.6532 102.556 90.3756 102.458 90.0881 102.402C89.8461 102.379 89.6023 102.385 89.3617 102.419L87.3423 102.651C87.7839 102.937 88.1435 103.333 88.3855 103.8C88.6276 104.267 88.7438 104.789 88.7227 105.315" fill="#3F3D56"/>
</g>
<defs>
<clipPath id="clip0_27_15">
<rect width="293.602" height="180.593" fill="white" transform="scale(1.00136)"/>
</clipPath>
</defs>
</svg>
